# xmcd CD database file
#
# Track frame offsets:
#	150
#	28754
#	56893
#	73943
#	106367
#	132779
#	158030
#	189228
#	212748
#	236309
#	262088
#	282001
#	307689
#
# Disc length: 4516 seconds
#
# Revision: 0
# Processed by: cddbd v1.5.2PL0 Copyright (c) Steve Scherf et al.
# Submitted via: CDex 1.51
#
DISCID=b411a20d
DTITLE=Kailash Kokopelli - Walking Tree
DYEAR=2000
DGENRE=New Age
TTITLE0=Phoenix
TTITLE1=Rainbow Warrior
TTITLE2=The Road
TTITLE3=Mother Earth
TTITLE4=Walking Tree
TTITLE5=Above and Below
TTITLE6=Heartlight
TTITLE7=Peace § Beauty
TTITLE8=Wings
TTITLE9=Fragrance
TTITLE10=Humming Bird
TTITLE11=Sasquach
TTITLE12=Soluna
EXTD=YEAR: 2000
EXTT0=
EXTT1=
EXTT2=
EXTT3=
EXTT4=
EXTT5=
EXTT6=
EXTT7=
EXTT8=
EXTT9=
EXTT10=
EXTT11=
EXTT12=
PLAYORDER=
